<?xml version="1.0" encoding="UTF-8"?>
<svg id="Capa_2" width="875.65" height="935.36" data-name="Capa 2" xmlns="http://www.w3.org/2000/svg" viewBox="0 0 875.65 935.36">
  <g id="Capa_1-2" data-name="Capa 1">
    <g>
      <path d="M716.47,353.29c34.03,5.71,69.27,19.48,92.43,45.96,51.27,58.63,44.28,171.04,42.4,244.31-1,38.96-1.47,80.23-7.08,118.84-1.6,11.01-3.99,21.06-9.86,30.6,3.97-.67,7.7.85,11.45,1.05,7.57.41,18.98-1.29,25.79.18,4.85,1.05,5.81,7.15.27,7.82-9.23,1.12-24.23.16-34.06,0-3.99-.06-7.84-1.77-11.9-1-2.07.39-5.4,3.09-7.86,4.12-21,8.79-42.95,12.53-65.56,14.87-.5,13.25,3.09,20.2-8.13,29.35-40.45,23.65-78.06,52.8-118.49,76.34-27.14,15.8-57.71,7.78-87.73,6.2-92.51-4.89-185.27-10.11-277.73-16.99-17.96-1.34-42.89,1.98-48.15-20.79l-43.12-205.7c-2.75-30.93,16.03-32.76,41.37-32.39,68.47.99,137.23,3.54,205.72,5.08,27.22.61,54.82-.37,82,.92,23.74,1.13,44.39,4.03,49.92,31.01,14.82,62.87,25.06,126.91,40.13,189.71,1.85,7.71,7.51,34.22,12.28,38.68,1.8,1.68,4.39,2.71,6.78,1.83l128.15-80.97c-.19-3.25.19-6.6-.04-9.84-.11-1.49.77-2.89-1.49-2.48-5.21,4.82-11.08,9.09-16.97,13.01-28.51,18.99-64.33,42.64-94.13,58.74-4.27,2.31-16.49,10.21-15.09.37l112.68-70.15c-.18-1.8-5.33-1.13-6.43-.93-18.54,3.3-32.91,18.05-52,17.92-8.67-.06-12.21-6.38-16.04-7-4.56-.75-12.07,3.32-17.04,3.91-3.43.41-11.33.59-14.43-.34-2.16-.65-3.48-3.01-6.5-3.49-10.67-1.72-19.02,4.93-19.42-12.04,6.65,1.64,9.79,3.21,15.37-2.11s14.39-23.4,19.77-31.19c3.04-4.41,14.07-20.81,18.5-21.5,1.79-.28,2.18-.13,3.28,1.32-6.79,9.94-14.31,19.23-20.13,29.81-2.63,4.79-15.47,26.95-6.31,28.67,7.27,1.37,14.03-6.58,18.44-11.54,7.73-8.69,16.93-26.52,23.96-32.99,8.26-7.61,25.36-.91,18.47,7.49-1.69,2.06-6.08,4.92-8.46,7.52-5.08,5.58-20.1,21.3-18.79,28.77,2.42,13.91,22.11-4.19,26.34-8.23,3.79-3.62,10.54-13.74,15.17-14.8,10.06-2.3,18.7,6,28.71,5.81,2.77-.05,10-1.38,12.54-2.52,3.94-1.78,3.88-4.3,6.07-5.92,1.34-1,27.81-2.95,33.1-3.87,16.46-2.84,46.39-8.61,52.93-26,5.93-15.8-4.3-64.69-8.45-82.86-.82-3.57-6.49-26.51-7.67-27.3-.75-.5-1.65-.55-2.52-.55-32.12,5.23-62.95,15.86-93.26,27.24-.96,8.04,1.59,15.91,2.9,23.75,20.04-3.34,40.19-7.68,60.28-2.03.95.54.85,2.63.63,3.47-.76,2.85-24.24,1.33-28.5,1.65-27.03,2.07-51.92,17.31-78.43,21.98l25.88,13.56c1.55,1.21,9.66,8.36,4.56,9.41-.94.19-14.06-7.91-16.79-9.17-14.47-6.68-45.67-17.23-61.11-15.8-18.76,1.73-33.86,22.38-48.48,32.48-3.65-.93-3.32-5.08-1.85-7.88,2.55-4.85,19.92-19.39,25.12-22.84,26.37-17.5,35.43-7.28,62.11-7.73,5.77-.1,33.74-6.27,36.06-11.04-.03-3.07-1.88-19.49-2.98-21.04-1.44-2.05-8.08,1.02-11.08-7.9-3.82-11.33.8-23.76-.58-35.4-2.65-22.46-18.08-36.62-14.9-64.09.37-3.16,2.43-8.01,4.83-3.79,3.02,5.34,5.38,23.72,7.68,31.29.95,3.11,1.87,8.08,4.48,9.99-.78-28.39,4.41-57.97,15.23-84.21,2.14-5.19,4.14-14.5,10.76-12.73,2.32,2.26-8.34,33.33-9.71,38.76-4.21,16.73-7.06,33.9-7.27,51.18l11.49-30.96c1.35-3.27,10.41-23.44,12.16-24.01.86-.28,2.27.16,3.31.01,2.46,2.32-14.01,44.13-16,50.45-6.89,21.9-11.42,45.51-11.96,68.48,1.72,1.7,39.94-14.14,45.43-16.01,23.4-7.99,47.8-14.6,72.24-18.68,4.33-.72,26.39-2.07,27.1-4.87-2.13-6.84-4.98-13.48-7.73-20.08-14.98-35.96-31.79-77.13-49.27-111.61-12.62-24.89-27.5-41.32-54.59-50.32-33.38-11.09-70.36-15.64-103.89-27.1l-1.57-.07c-1.44.4-7.45,15.86-9.13,18.9-31.66,57.36-126.7,83.06-183.33,49.95-2.2,9.5,3.58,15.8,5.53,23.94,4.22,17.58-3.27,34.37-14.14,47.91-2.86,3.57-8.28,10.62-8.49.62-.16-8.09,11.92-22.31,13.63-33.44.52-3.37,1.64-9.78-1.54-12.04.11,15.27-24.56,40.28-13.48,54.94,3.16,4.18,11.99,4.54,12.43,5.06,2.22,2.7-2.01,5.27-4.71,5.71-20.79,3.43-29.36-19.15-32.24-35.23-.3-1.66.63-1.71-1.96-1.51-3.04,14.43,2.82,30.91,15.04,39.42,4.63,3.22,23.01,5.63,8.22,11.35-11.55,4.47-20.82.84-31.25-3.79-1.18,10.51-14.74,2.06-20.99,1.01,3.23,4.04,9.54,7.24,14.31,9.16,4.13,1.67,13.93,3.27,16.21,4.77.49.32,1.83,1.48.98,2.05-2.76,6.04-20.67,1.47-25.76-.24-17.34-5.84-30.49-19.43-33.72-37.73-1.63-.03-1.98,3.45-2.02,4.51-.13,3.46,1.72,8.31,1.05,10.82-.24.91-2.04.39-2.04,1.15,0,2.53,5.14,3.45,5.87,6.16l-.82,2.86c-22.91,1.64-39.03-28.18-40.86-48.13-.81-8.87,2.05-23.92.64-30.63-.65-3.11-4.51-8.12-5.79-12.18-7.5-23.68,3.95-37.96,10.33-58.68.25-.81,1.55-2.3.2-2.8-6.83,7.05-16,12.26-23.01,18.96-12.92,12.34-17.53,28.11-23.47,44.48-12.14,33.46-21.92,67.91-33.23,101.67-1.88,5.61-.59,12.45-9.12,11.72-3.78-.32-4.16-2.54-5.39-5.67,12.27-37.68,23.09-76.42,36.75-113.71,4.88-13.3,10.45-29.43,19.49-40.47,11.32-13.82,41.11-29.97,46.45-46.48.16-.51.27-1.63-.48-1.48-9.04,10.49-20.07,18.47-34.47,18.97,6.01-5.66,14.43-9.05,20.47-14.99,7.56-7.42,13.96-21.71,13.5-32.43-.55-12.96-13.7-24.22-14-37.52-1.3-1.59-1.82.11-1.99,1.49-.3,2.37-.21,6.55.02,9,.63,6.69,6.34,19.56,6,24.01-.15,2.07-1.52,2.74-3.49,2.53-5.41-.57-12.03-20.48-15.09-24.96-4.01-5.89-9.34-8.96-13.24-16.73-20.16-40.13,3.9-70.2,14.84-106.72,5.74-19.15,2.79-45.12,5.09-65.86,7.34-66.2,47.2-128.93,102.05-165.74,38.32-25.72,99.68-36.43,141.6-14.29,5.07,2.68,10.31,7.42,15.69,9.29,11.49,3.99,22.73,4.58,34.92,10.04,56.99,25.53,76.14,106.15,97.76,159.04,12.45,30.44,29.1,60.87,40.18,91.72,8.43,23.48,12.41,46.75,5.24,71.2ZM503.69,86.48c7.89-2.85,15.83-10.03,16.87-18.61.35-2.87,1.47-10.55-2.88-10.38-.78,4.47,2.49,10.09-.54,13.95-3.19,4.06-4.6-7.19-8.45-5.95,1.34,3.02,1.68,8.81.34,11.77-.82,1.81-2.84,1.14-3.85,2.15-4.37,4.4-5.93,8.79-13.95,9.16-3.55.16-6.69-1.83-9.21-1.85-7.86-.04-17.94.51-26.13,2.39-2.84.65-12.47,3.25-14.18,4.8-4.31,3.93-14.64,21.86-18.12,27.85-6.3,10.86-11.47,22.38-17.64,33.32-4.09,7.25-15.93,22.75-17.91,29.05-.63,2.02-1.93,14.57-1.25,15.25,9.63-.68,20.95.61,28.91,6.56,2.4,1.79,5.32,5.35.29,4.74-4.41-.54-9.18-2.85-13.72-3.3-5.58-.54-11.81.37-17.47,0l-6,26.97c23.2-7.81,46.46.02,59.42,20.75,11.59-7.35,23.74-6.15,36.42-2.82,10.31-41.6,73.2-44.1,90.43-6.16l38.05-15.76c.58-.72.44-1.51.42-2.35-.16-4.7-7.05-25.02-9.44-29.65-1.44-2.78-10.7-11.79-8.5-13.96l2.98-.51c-3.7-4.36-8.61-7.33-12.5-11.48-18.89-20.18-27.47-48.11-44.93-69.98-1.4-1.76-4.67-3.89-5.57-5.43-1.01-1.71-.82-4.34-.98-4.51-.47-.47-11.13-.59-13.24-1.08-.73-.17-.69-1.59-1.49-1.87-.89-.31-8.44-.76-6.21-3.07ZM393.78,166.4l30.97-58.95c-12.45,15.53-26.79,36.3-31.52,55.91-.24,1-1.31,3.27.54,3.04ZM366.83,202.39l8.85-3.63c1.34-23.7,5.61-47.56,15.11-69.32-15.62,20.74-23.36,47.04-23.96,72.95ZM373.81,209.38c-11.61-1.14-9.23,4.34-12.51,11.97-1.76,4.1-4.14,7.95-5.95,12.03l-11.5,17.97,3.41-1.09,1.09,2.14c17.25-6.95,24.32-25.47,25.47-43.02ZM515.17,232.37c7.2-.85,17.37,0,24.98,0,.71,0,3.45,2.2,4.49.5-34.04-23.41-82.53,10.73-59.36,50.38,22.14,37.88,79.22,19.23,75.38-25.44-.35-4.13-1.59-8.66-3.84-12.15-4.47-6.91-4.82-2.85-10.68-3.22-5.01-.31-10.37-2.18-15.49-2.08,20.07,29.2-34.74,35.87-22.99,1.99-2.22.95-4.53,1.65-6.67,2.81-4.76,2.6-7.36,7.44-12.3,8.17-.8-10.7,17.57-19.93,26.47-20.98ZM615.58,254.35c3.14.09,5.96-4.7,5.72-7.34l-6.71-11.63.99,18.98ZM435.56,275.03c0-21.59-17.49-39.09-39.08-39.09s-39.08,17.5-39.08,39.09,17.49,39.09,39.08,39.09,39.08-17.5,39.08-39.09ZM604.58,239.37c-7.65,2.52-15.18,5.4-22.31,9.15-4.96,2.6-3.37,2.39-9.7,4.29-9.72,2.91-5.05,9.25-6.05,17.93-5.49,47.82-81.43,54.61-92.57.87-.79-3.8,1.2-8.33-2.28-10.71-6.01-4.1-23.37-3.18-29.21,1.4-2.92,2.29.25,8.55-.7,12.05,2.81-1.11,1.46-5.89,5.48-4.99,6.25,1.82-1.82,30.53-2.38,35.57-1.25,11.38,4.73,12.58,10.88,20.38-6.04,1.12-16.83-5.16-18.52-10.94-2.32-7.95,3.91-19.81,4.52-28.02l-6.17,11.3c-30.58,46.57-101.39,10.26-80.74-40.28-1.36-1.13-7.73,6.98-10.9,4.89l-1.59-3.88-10.57,9.39-11.9,7.57c8.42,1.48,17.6-10.04,22.9-11.57,4.99-1.45,2.77,11.45,3.08,15.07,5.71,67.03,46.38,131.59,116.69,143.1,33.64,5.51,67.14-17.39,91.11-39.15,40.64-36.9,55.98-89.25,50.93-143.42ZM622.22,297.98c5.23-5.03,14.47-37.37,11.81-43.61-1.06-2.48-6.14-6.49-8.34-3.39-3.06,4.3-4.39,9.34-10.13,12.08l.03,10.29,10.47-3c3.53.46-5.04,7.19-6.13,7.86-1.91,1.16-4.2,1.38-6.19,2.31.18,4.75-3.67,13.77-1.66,17.83,1.77,3.58,7.64,2.06,10.14-.35ZM706.49,350.29c2.75,2.52,4.74-9.41,4.87-10.61,1.33-12.93-.84-28.04-4.16-40.57l-6.7-17.77,5.99,68.95ZM269.9,368.27l-4.97-64.95c-5.2,17.51-7.38,34.88-1.03,52.48l6,12.47ZM828.36,595.13c0-38.14-1.22-76.78-9.29-114.11-8.88-41.04-26.46-74.05-66.27-91.61-14.39-6.35-29.98-9.88-45.31-13.12,1.74,13.21,1.66,27.01,3.01,40.46.45,4.51,4.22,34.03,5.49,35.48,34.65,8.4,62.48,28.78,77.28,61.61l35.1,81.3ZM608.46,441.35c-9.18-4.03-18.92-8.08-25.36-16.1-9.14-11.37-10.53-29.86-11.49-43.98-25.9,24.48-62.34,55.51-100.38,52.95-13.64-.92-27.31-6.73-40.47-9.97,3.14,15.13,3.94,32.03,3.04,47.5-.3,5.15-4.19,22.73-3.52,25.58.88,3.78,17.33,10.86,21.51,12.31,44.46,15.47,109-2.46,139.79-37.96,3.37-3.89,19.31-26.49,16.89-30.33ZM647.54,432.23l-8.49-23.97-4.48-23.98c-2.34,14.21-1.71,28.8,6.16,41.29.69,1.09,5.4,8.02,6.82,6.66ZM703.48,447.22l-6.97-42.96c.82,12.07,1.14,24.46,4.27,36.19.48,1.79,1.16,5.88,2.7,6.77ZM368.82,504.19c9.22-10.78,7.97-27.78,4.24-40.73l-6.24-14.23c2.53,18.73,6.08,36.03,2,54.96ZM418.75,518.17c5-16.23-.44-35.05-10.97-47.96l8.53,26.93,2.43,21.03ZM300.87,536.17c-.51-16.53,1.04-33.16,5.99-48.97-9.64,11.51-14.17,31.57-8.25,45.74.52,1.24.54,2.95,2.26,3.23ZM368.8,611.12l-15.15-20.31c-14.68-25.45-12.85-44.51-9.09-72.4.15-1.08,1.1-3.44-.72-3.22-16.9,32.35-11.01,80.06,24.95,95.93ZM325.85,572.15l-9.97-44.96c-2.71,14.58.28,33.39,9.97,44.96ZM400.77,577.14l3-32.97c-5.47,6.67-6.87,18.07-5.9,26.4.17,1.49,1.23,5.98,2.9,6.58ZM306.87,559.15c-2.68-.25-1.61-.01-1.97,1.5-2.71,11.22.7,27.3,8.96,35.48l-6.99-36.98ZM182.31,671.39c-3.29,3.55-2.53,13.18-2.03,17.91,16.67,64.68,24.7,134.53,42.17,198.66,3.18,11.66,5.15,12.56,17.28,14.7,21.26,3.75,47.68,2.87,69.64,4.29,83.11,5.36,166.62,11.2,249.76,14.99,6.89.31,18.34,2.33,24.86,1.7,1.18-.11,2.3-.92,3.19-1.67-4.42-13.68-8.04-27.78-11.27-41.8-13.15-57.27-21.58-117.17-35.94-173.91-2.28-8.99-4.86-21.62-12.97-27-12.73-8.45-46.99-5.72-62.81-6.12-82.04-2.1-164.55-4.94-246.67-6.08-7.7-.11-30.13-1.14-35.2,4.35Z"/>
      <path d="M160.23,654.3l-10.21,116.73c.81.82,19.53.3,23.03,1.44,1.53.5,2.8,1.29,3,3.08,2.04,10.52-25.96,3.36-27.02,4.46-1.47,11.06.05,21.61-11.72,26.77-13.45,5.89-49.86,5.99-63.75,1.26-2.34-.8-6.86-2.78-8.48-4.51-5.31-5.7-4.63-24.37-7.96-26.01l-56.04-2.89c-1.65-2.1-1.63-6.39,1.59-6.59l54.45,1-15.02-114.16c-9.92-5.38-8.14-17.2-1-24.25,38.66,9.47,81.65,9.31,120.29-.27,7.42,5.16,7.84,20.05-1.16,23.96ZM147.91,690.94l3.07-32.46-1.53-2.28c-32.11,5.43-65.11,5.11-97.33.88l4.59,34.09c29.56,5.66,61.74,5.79,91.19-.24ZM66.11,758.02c1.66,8.34,1.35,32.69,5.97,38.5.77.97,1.64,1.68,2.75,2.25,9.58,4.9,45.82,4.29,56.21.72,2.15-.74,5.31-2.53,6.43-4.56l3.56-37.9c-24.64,5.91-50.06,4.42-74.92,1Z"/>
      <path d="M150.81,612.33c1.11.81,2.9,12.72,1.78,14.86-.62.86-12.91,2.51-15.19,2.78-23.4,2.84-52.32,3.32-75.66.01-2.43-.34-9.25-1.21-10.91-2.07-3.04-1.58-.38-10.94.19-14.39,1.4-1.77,9.98-2.85,12.73-3.25,28.4-4.15,58.83-2.6,87.06,2.06Z"/>
      <path d="M102.08,586.13c-1.32-3.86,2.36-6.98,2.83-9.74,1.09-6.35-8.18-12.32-11.8-16.77-14.39-17.7-21.49-38.59-1.5-55.4,7.75-6.52,19.26-9.74,23.31-19.65,4.43-10.82.97-18.18-3.87-27.85,1.16-4.35,5.56.39,6.83,2.17,5.82,8.18,6.78,19.47,2.94,28.59-6.42,15.26-30.82,21.51-32.77,37.17-2.88,23.17,25.23,35.61,22.78,52.73-.6,4.22-3.89,9.75-8.77,8.75Z"/>
      <path d="M261.44,542.17c2.1-.48,3.21,2.85,3.65,4.32,3.19,10.57,3.73,27.6,6.31,39.66,3.31,15.44,13.63,40.71,14.45,54.59.52,8.77-10.27,9.36-12.49,2.41-.71-2.23-.31-4.75-.89-7.1-7.27-29.27-12.64-51.72-13.58-82.35-.07-2.39-.38-10.86,2.55-11.53Z"/>
      <path d="M139.03,500.2c1.71,1.17-.31,7.58-1.1,9.38-3.68,8.44-16.13,17.62-16.62,26.34-.79,14.03,22.34,15.67,19.47,37.47-.59,4.52-8.12,21.76-13.2,20.74s4.94-12.71,5.79-16.18c4.07-16.67-4.89-17.79-13.32-27.28-15.22-17.12,2.47-29.03,11.45-41.55,1.43-1.99,4.22-11.21,7.54-8.93Z"/>
      <path d="M587.59,822.98c-1.6-.21-2.07-3.63-2.49-4.99-.87-2.84-4.69-16.47-4.03-17.95l37.94-39.06,3.96-.89c.93.61,1.59.99,1.47,2.29-.14,1.57-16.16,21.6-18.68,25.32-7.23,10.66-15.27,22.64-18.18,35.29Z"/>
      <path d="M592.59,846.96c9.24-.75,18.35,1.31,27.49,1.99,4.61.34,24.34-.31,26.56,2.41,3.52,4.33-2.64,7.93-6.68,8.5-8.21,1.16-29.24.85-37.74-.04-1.94-.2-6.51-.88-7.7-2.29l-1.92-10.58Z"/>
      <path d="M597.24,862.11c2.92-.96,23.27-.07,26.67,1,2.74.87,2,4.93.2,6.9-3.49,3.8-20.43,6.03-24.83,3.75-2.13-1.1-5.47-10.52-2.04-11.65Z"/>
      <path d="M641.52,895.97c.28,1.78.23,3-.98,4.46-1.46,1.75-14.83,9.92-16.88,8.42l-.91-3.28c1.86-2.63,16.79-12.42,18.77-9.6Z"/>
      <path d="M395.12,779.32c-6.02,8.6-2.58,16.96,4.72,23.11,1.62,1.36,4.8,1.36,4.89,3.97-.75,5.42-5.37,15.39-10.89,17.12-6.41,2.01-11.15-2.37-17.39-2.17-12.85.41-13.9,9.3-26.14-4.36-8.84-9.86-19.32-30.17-8.12-41.62,9.07-9.28,15.61-3.43,25.12-3.28,9.34.15,25.22-7.79,30.41,5.35-.26,1.02-2.18,1.25-2.62,1.88Z"/>
      <path d="M382.67,747.16c2.88,9.03-5.78,22-15.92,20.44-4.11-10.01,5.76-21.16,15.92-20.44Z"/>
      <path d="M428.83,349.36c11.09,2.69,20.6-1.77,31.41-3.05,9.72-1.15,44.28-.92,49.86-5.1,2.32-1.74.49-5.06,6.07-4.94,9.47.2,8,15.21-.87,7.1-17.66,12.46-46.77,15.52-68.06,13.9-3.25-.25-17.88-2.39-19.05-4.95l.63-2.96Z"/>
      <path d="M492.69,366.29c-4.17,11.12-30.71,12.48-38.92,7.45-1.73-1.06-7.03-6.22-1.62-5.39,3.1.48,6.07,2.43,9.16,2.84,10.78,1.44,21.61-.56,31.38-4.9Z"/>
      <path d="M485.7,313.33c-.7,3.73-20.07,12.61-19.96,7.48,5.69-3.81,13.06-7.38,19.96-7.48Z"/>
      <path d="M485.71,204.38c1.29-11.14,20.22-14.58,29.48-14.97,5.28-.22,35.3,3.83,36.45,8.49,0,2.2-1.73,2.48-3.49,2.57-3.85.2-10.77-1.87-15-2.08-15.99-.79-32.58-.29-47.44,5.98Z"/>
      <path d="M423.76,255.35l-9.98-3.98c13.03,30.94-35.26,34.04-23.98,2-2.9-.01-6.01.73-8.69,1.79-4.74,1.89-10.05,9.52-14.26,5.71,6.02-15.9,26.62-17.96,41.42-16.49,5.76.57,16.25,3.74,15.49,10.98Z"/>
    </g>
  </g>
</svg>