<?xml version="1.0" encoding="UTF-8"?>
<svg id="Capa_2" data-name="Capa 2" xmlns="http://www.w3.org/2000/svg" viewBox="0 0 103.84 103.84">
  <defs>
    <style>
      .cls-1 {
        fill: #e3e5e3;
        stroke: #fff;
        stroke-miterlimit: 10;
        stroke-width: 2.12px;
      }

      .cls-2 {
        fill: #c97f7d;
      }
    </style>
  </defs>
  <g id="Capa_1-2" data-name="Capa 1">
    <g>
      <circle class="cls-2" cx="51.92" cy="51.92" r="51.92"/>
      <g>
        <path class="cls-1" d="M46.47,53.69c1.55,1.95,2.33,4.16,2.33,6.62,0,2.11-.55,4.01-1.64,5.7-1.09,1.69-2.68,3.02-4.74,4-2.07.97-4.48,1.46-7.22,1.46h-16.59V30h15.81c2.82,0,5.25.48,7.28,1.43,2.03.96,3.56,2.24,4.59,3.85,1.03,1.61,1.55,3.41,1.55,5.4,0,2.39-.64,4.38-1.91,5.97-1.27,1.59-2.98,2.77-5.13,3.52,2.23.4,4.12,1.57,5.67,3.52ZM25.41,47.42h8.41c2.23,0,3.97-.51,5.22-1.52,1.25-1.01,1.88-2.48,1.88-4.39s-.63-3.33-1.88-4.38c-1.25-1.05-2.99-1.58-5.22-1.58h-8.41v11.87ZM40.02,64.25c1.31-1.11,1.97-2.67,1.97-4.65s-.7-3.64-2.09-4.83c-1.39-1.19-3.24-1.79-5.55-1.79h-8.95v12.95h9.19c2.31,0,4.12-.56,5.43-1.67Z"/>
        <path class="cls-1" d="M89.87,30l-15.57,41.47h-7.88l-15.63-41.47h7.28l12.29,34.49,12.35-34.49h7.16Z"/>
      </g>
    </g>
  </g>
</svg>
